<svg xmlns="http://www.w3.org/2000/svg" xml:space="preserve" width="120" height="120"><path fill="currentColor" d="M80.6 28.7c-.5-.1-1 .2-1.6.7l-6.8 9.2A25 25 0 0 0 60 36.2c-14.3 0-25.4 9.5-29.7 23.8 1.9 8.3 6.5 14 12.6 18.3L35.6 88c-.7 1-.2 2 .8 2.7 1 .7 2 .8 2.7-.2L82.4 32c.7-1 .3-2-.7-2.7-.4-.4-.7-.6-1-.6zm-2.3 13.7-9.7 13.1c1.3 1.7 1.3 3.4 1.2 5.6-.9 7.2-7.7 9.2-12.1 8.9L49 81.9a24 24 0 0 0 11 2 29.6 29.6 0 0 0 29.7-24 34.1 34.1 0 0 0-11.4-17.5zm-70.7 7c-2 0-4.2 1.8-4.1 4 .5 4 2.6 6 4.7 6.2a50.8 50.8 0 0 1-.4-10.2 3.2 3.2 0 0 0-.2 0zm104.8 0h-.2a50.8 50.8 0 0 1-.5 10.2c2.2-.3 4.3-2.3 4.8-6.1 0-2.3-2-4-4.1-4zm-52.2 1a11 11 0 0 1 3 .4L51.8 66.1a9.4 9.4 0 0 1-2-6.6c.1-5.3 5-9.2 10.4-9.1zm-50 5.4c-.3 3.7-.7 7-1.4 10.1 2.2-.1 4.5-2 5.3-5.7a4 4 0 0 0-3.8-4.4zm99.5 0a4 4 0 0 0-3.8 4.4c.8 3.8 3.1 5.6 5.3 5.7-.7-3.1-1.1-6.4-1.5-10.1zM7.2 66.8c-2 .6-3.7 3-3 5.2 1.6 3.5 4.3 4.8 6.4 4.5A50.8 50.8 0 0 1 7.2 67zm105.6 0a50.8 50.8 0 0 1-3.4 9.7c2.1.3 4.8-1 6.4-4.5.7-2.2-1-4.6-3-5.1zM12 71.6a3.7 3.7 0 0 0-1 .1c.8 3.7 1.2 7 1.4 10.2 2-.7 3.8-3.1 3.6-7a4 4 0 0 0-4-3.3zm95.8 0a4 4 0 0 0-4 3.3c-.2 3.9 1.5 6.3 3.6 7 .2-3.2.6-6.5 1.4-10.2a3.7 3.7 0 0 0-1 0zM12.2 84c-1.8 1.2-2.5 4-1 5.9 2.7 2.8 5.6 3 7.5 2a50.8 50.8 0 0 1-6.5-7.9zm95.6 0a50.8 50.8 0 0 1-6.5 8c1.9 1 4.8.7 7.5-2.1 1.5-1.9.8-4.7-1-5.9zm-88 2.1a3.9 3.9 0 0 0-1.9.5C19.6 90 21 93 22 96c1.8-1.2 2.8-4 1.5-7.7a4 4 0 0 0-3.7-2.2zm80.4 0a4 4 0 0 0-3.7 2.2c-1.3 3.7-.3 6.5 1.5 7.7 1-3 2.4-6 4-9.4a3.9 3.9 0 0 0-1.8-.5zM32 97.7a4 4 0 0 0-3 1.2c2.6 2.7 4.8 5.2 6.6 7.9C37 105 37.2 102 35 99a3.9 3.9 0 0 0-3-1.3zm56 0c-1 0-2.1.4-3 1.3-2.2 3.1-2 6-.6 7.8 1.8-2.7 4-5.2 6.5-8a4 4 0 0 0-2.9-1.1zm-66.4.3c-1.3 1.8-1 4.7 1 5.9 3.5 1.7 6.4 1 7.8-.7a50.8 50.8 0 0 1-8.8-5.2zm76.8 0a50.8 50.8 0 0 1-8.8 5.2c1.4 1.7 4.3 2.4 7.8.7 2-1.2 2.3-4.1 1-5.9zm-52.1 6.7a4 4 0 0 0-3.7 2.4c3.3 1.6 6.2 3.3 8.8 5.1.7-2 0-4.9-3.3-7a3.8 3.8 0 0 0-1.8-.5zm27.4 0a3.8 3.8 0 0 0-1.8.4c-3.2 2.2-4 5-3.3 7.1 2.6-1.8 5.5-3.5 8.8-5.1a4.1 4.1 0 0 0-3.7-2.4zm-14 2.5c-.5 0-1 1.3-2.6 4-3 5.3-3.5 4.6 2.7 4.6s5.8.7 2.7-4.6c-1.6-2.7-2.1-4-2.7-4zm-24.1 1.7c-.6 2.1.7 4.7 3 5.2 3.8.4 6.3-1.3 7-3.3a50.8 50.8 0 0 1-10-1.9zm48.8 0a50.8 50.8 0 0 1-10 2c.7 2 3.2 3.6 7 3.2 2.3-.5 3.6-3.1 3-5.2z"/><path fill="currentColor" d="m47.5 110.4-3.4 6.3-1.5-.5.8-7.1 1.3.4-.3 1.5 1.1.4.7-1.4zm-2.4 1.8-.8-.3-.4 2.8zm-2.4-3.4-2.7 6.5-1-.4v-4l-1.4 3.4-1-.5 2.7-6.4.9.3-.1 4.2 1.5-3.6zm-6-3q.6.4.9.9.3.5.2 1 0 .6-.4 1.2l-1.3 2.3-.7 1q-.5.3-1 .3t-1.2-.3q-.7-.4-1-.8-.2-.5-.1-1 0-.6.4-1.2l1.2-2.3.8-1q.4-.4 1-.4.5 0 1.2.4m-.5.9q-.3-.2-.5-.1l-.3.2-.2.4-1.6 2.9-.2.4v.4q0 .2.3.3.2.1.4 0l.3-.1.3-.4 1.6-3 .1-.3q.1-.2 0-.4 0-.2-.2-.3m-2.2-2.3-4.1 5.7-1.3-1 1.8-4-3.3 3-1.2-.8 4-5.8.8.6-2.6 4 3.5-3.4.7.5-2 4.5 2.8-4zm-4.7-3.3-5.6 4.3-1.2-1 3.6-6.2 1 .9-.8 1.3.8.8 1.2-1zm-2.9.6-.6-.5-1.5 2.4zm-.8-4-5 4.9-1-1 4.3-4.2-1.1-1.2.7-.7zM22 93.6q.5.6.6 1.1t-.2 1l-.8 1-2 1.6-1.2.6q-.5.2-1 0t-1-.8q-.4-.6-.5-1.1l.2-1 .8-1 2-1.6 1.1-.6q.6-.2 1 0 .6.2 1 .8m-.8.6q-.1-.2-.3-.2h-.4l-.4.3-2.5 2.1-.4.3-.1.4.1.4.4.2h.4l.3-.3 2.6-2.1.3-.3.2-.4-.2-.4M19 89.6q.4.6.5 1.1t-.4 1q-.3.4-1 .8l-4 2.6-.7-1.1 4.2-2.8.4-.3.2-.3V90l-.4-.2h-.5l-.4.3-4.2 2.7-.8-1.2 4-2.6 1.2-.5q.5-.2 1 0 .5.3.9 1m-2.4-4.2q.4.8.2 1.5t-1.3 1.3l-.7-1 .8-.7q.2-.3 0-.6-.1-.2-.3-.2h-.4l-.6.6-.2.8-.3 1q0 .4-.3.8-.3.5-.8.7-.8.4-1.4.2-.7-.2-1-1-.3-.5-.3-.9t.1-.6.5-.6.5-.4l.8 1-.7.5q-.2.2 0 .5 0 .3.3.3l.4-.1.5-.4.2-.7.2-.9.5-1q.2-.6.9-1l.9-.1.8.2q.4.3.7.8m-2.7-6.1q.2.7.1 1.2t-.5.9l-1.1.6-2.5.9-1.2.2q-.5 0-1-.3l-.6-1q-.3-.8-.2-1.3.1-.6.6-1l1-.5 2.5-1 1.2-.1q.6 0 1 .3t.7 1m-1 .4q0-.2-.3-.3h-.8l-3 1.2q-.3 0-.5.2-.2 0-.3.2v.5l.3.3h.8l3.1-1.2q.3 0 .5-.2l.2-.3q.1-.1 0-.4m-.5-5q.2.7 0 1.2-.1.5-.6.8l-1.1.5-2.5.6q-.7.2-1.2.1-.6 0-1-.4t-.6-1.1V75q.1-.5.5-.8.4-.3 1-.4l.6-.2.3 1.4-.6.1-.4.2q-.2 0-.3.2-.1.1 0 .4 0 .3.2.4h.8l3.1-.8q.5-.1.7-.3.2-.2.1-.5 0-.3-.2-.4h-.9l-.6.2-.4-1.3.6-.2H11q.5 0 .9.3.3.4.5 1.1m-1-4.7q.2.8 0 1.3t-.7.7q-.5.3-1.2.4l-2.5.4H5.7q-.5-.1-.9-.5-.3-.4-.4-1.2v-1.2q.2-.5.7-.7.4-.3 1-.3l.6-.1.2 1.3-.7.1-.4.1q-.2 0-.3.2-.2.2-.1.4 0 .3.2.4l.4.1h.4l3.2-.5q.4 0 .7-.2.2-.2.2-.5t-.2-.4q-.2-.1-.4 0H8.7l-.2-1.3.6-.1h1.1q.5.1.8.5.4.4.5 1.1M11 65q0 .8-.2 1.3-.2.4-.8.7-.5.2-1.2.2l-4.8.2V66l5-.2h.4l.4-.3q.2-.1.2-.4 0-.3-.2-.4l-.4-.2h-.5l-5 .3-.1-1.4 4.8-.3 1.3.1q.5.2.8.6.3.4.3 1.2m-.2-3-7-.3v-1.9l.3-1.2q.2-.5.6-.7.4-.3 1.1-.2.7 0 1.1.2.4.2.6.7l3.5-.8v1.5l-3.3.6v.5l3.2.2zm-4-1.6V60q.1-.6-.1-.8-.3-.2-.8-.2t-.7.2q-.3.1-.3.6v.5zm4.3-3.4-7-1.1.3-1.8.4-1.2q.2-.4.7-.7.4-.2 1.1 0 .7 0 1 .3.5.2.6.8l3.5-.5-.2 1.5-3.2.3-.1.5 3.1.5zm-3.8-2 .1-.5-.1-.7-.8-.3h-.7q-.3.2-.4.7v.4zm4.7-3-7-1.7.8-3 1 .3-.5 1.6 1.8.4.3-1.2 1 .2-.3 1.2 2.1.6.4-1.6 1 .2zm.9-3.7L6.2 46l.4-.9 4-.3L7 43.6l.3-1.1 6.7 2.3-.3.9-4.2.2 3.7 1.2zm2.5-6.3q-.4.8-.8 1-.5.3-1 .3-.6 0-1.2-.4l-2.3-1q-.7-.3-1-.7-.5-.4-.5-.9-.1-.5.2-1.2.3-.7.7-1 .4-.3 1-.3.4 0 1 .3l.5.3-.6 1.2-.6-.3-.4-.1H10l-.3.3v.4q0 .2.3.3l.4.2 2.9 1.4.7.2q.3 0 .4-.4.1-.2 0-.4 0-.2-.2-.3l-.4-.2-.6-.3.5-1.3.6.3q.5.2.9.6.3.3.4.8l-.2 1.2m1.1-2.6L10.4 36l1.5-2.7.9.5-.8 1.4 1.6 1 .6-1.2.9.5-.7 1.1 2 1.1.8-1.4.8.5zm3-4.7q-.5.8-1.3.9t-1.6-.5L17 34l.9.4q.4 0 .6-.3.1-.2 0-.4 0-.2-.3-.3-.3-.2-.7-.2l-.8.1-1 .2q-.4.2-.9.2t-1-.4q-.7-.5-.8-1.2-.1-.7.4-1.4l.6-.6q.3-.2.7-.2l.7.2q.3 0 .6.3l-.6 1-.7-.3q-.3 0-.5.2v.5q0 .2.3.3l.6.2.6-.1 1-.3 1-.1q.7 0 1.3.4.4.3.6.7.2.4.1.9t-.3.9m2.7-3.9L17 26.1l1.2-1.2 1-1h1q.6.2 1.1.7l2 1.7.8 1q.2.5 0 1-.1.6-.7 1.2zm.2-1.7.2-.2q.3-.3.3-.5l-.1-.4-.4-.5-2.2-2-.4-.3h-.4q-.2 0-.5.3l-.2.2zm3.2-2-4.8-5 1-1 4.9 5.1zm2.6-2.3-5.5-4.5 1-.8 3.7 3.2-2.5-4.3 1-.8 3.4 6.3zm2.8-2.2-4-5.6 1.1-.8 4.1 5.7zm3.6-2.3q-.8.5-1.5.3t-1.3-1.1l.9-.8.7.7q.3.2.6 0 .2-.1.2-.3l-.1-.4-.6-.6-.8-.2-1-.1-.9-.3q-.4-.3-.7-.8-.5-.7-.3-1.4.2-.6 1-1.1.4-.3.8-.3l.7.1.5.4.5.5-1 .8q-.2-.4-.5-.6t-.5 0q-.2.1-.2.4v.4l.5.4.7.2 1 .2q.5 0 1 .3.6.3 1 .9.2.4.2.9l-.2.8q-.2.4-.7.7m2.2-1.4-3.3-6.2 1.3-.7 3.2 6.3zm4-1.8q-.7.3-1.2.2-.5 0-1-.5l-.6-1-1-2.4q-.3-.7-.3-1.2 0-.6.3-1t1-.7q.7-.4 1.2-.3.6 0 1 .5l.6 1 1 2.4q.3.7.3 1.2 0 .6-.2 1-.4.5-1 .8m-.5-1q.3 0 .3-.3V15l-1.4-3-.2-.4-.3-.2q-.2-.1-.4 0l-.3.3v.8l1.4 3 .2.4.3.3h.4m3.2-.4-2.1-6.7 1-.3 2.5 3-1-3.4 1-.4 2.2 6.7-1 .3-2.6-3.2 1.2 3.7z" aria-label="ANOMALOUS OCCURRENCES DIVISION" font-family="Oswald" font-size="8.7" font-weight="600" style="-inkscape-font-specification:&quot;Oswald, Semi-Bold&quot;;text-align:center" text-anchor="middle" transform="rotate(90 61.4 61.3)"/></svg>
