<svg xmlns="http://www.w3.org/2000/svg" xml:space="preserve" width="1em" height="1em" viewBox="0 0 8.467 8.467"><path d="M1.058.53h.53v.528h.529v.53h.529v1.058h.529v.529h2.117v-.53h.529V1.588h.529v-.529h.53V.53h.528v1.588h.53v1.587h.529V6.35H7.408v-.53H6.88v-.528H5.821v.529h-.53v.529H3.176v-.53h-.53v-.528H1.588v.529h-.529v.529l-1.065.002L0 3.704h.53V2.117h.528Z" style="fill:currentColor;fill-opacity:1;stroke-width:.264583"/><path d="M.53 6.35v.53h.528v1.057h1.059v.53H6.35v-.53h1.058V6.88h.53V6.35H6.878v-.53H5.821l-.003.532-3.172-.002v-.53H1.587v.53zM0 3.175h.53v.53H0Z" style="fill:currentColor;fill-opacity:1;stroke-width:.264583"/><path d="M.53 1.587v.53h.528v-.53ZM7.408 1.587v.53h.53v-.53Z" style="fill:currentColor;fill-opacity:.75158226;stroke-width:.264583;opacity:1"/><path d="M7.937 3.175v.53h.53v-.53Z" style="fill:currentColor;fill-opacity:1;stroke-width:.264583"/><path d="M7.408 6.88v.528h.53V6.88ZM.53 6.88v.528h.528V6.88Z" style="fill:currentColor;fill-opacity:.75158226;stroke-width:.264583;opacity:1"/></svg>
